<svg width="178" height="72" viewBox="0 0 178 72" fill="none" xmlns="http://www.w3.org/2000/svg">
<path fill-rule="evenodd" clip-rule="evenodd" d="M127.34 1.0673H142.995L178 70.9327H162.345L158.844 63.9463H126.188C128.441 59.7845 129.722 55.0256 129.722 49.9729H151.843L135.167 16.6901L120.695 45.5729C121.001 46.993 121.165 48.4637 121.165 49.9729C121.165 61.5301 111.743 70.9327 100.162 70.9327H63.7133C68.5189 67.1387 72.5287 62.3865 75.4417 56.9598H100.162C104.023 56.9598 107.163 53.8258 107.163 49.9729C107.163 46.1204 104.023 42.9864 100.162 42.9864H86.152C80.7575 42.9864 75.8326 40.9448 72.1094 37.5971C71.2679 56.7089 55.4298 72 36.0748 72C16.1833 72 0 55.8508 0 36C0 16.1492 16.1833 0 36.0748 0C48.5488 0 59.5618 6.3515 66.0424 15.9828C68.6493 7.36371 76.6763 1.0673 86.152 1.0673H117.773L110.771 15.0402H86.152C82.2915 15.0402 79.151 18.1742 79.151 22.0271C79.151 25.8796 82.2915 29.0136 86.152 29.0136H100.162C104.391 29.0136 108.329 30.2712 111.628 32.4258L127.34 1.0673ZM36.1086 58.0563C48.3073 58.0563 58.2314 48.1621 58.2314 36C58.2314 23.8379 48.3073 13.9437 36.1086 13.9437C23.9098 13.9437 13.9857 23.8379 13.9857 36C13.9857 48.1621 23.9098 58.0563 36.1086 58.0563Z" fill="black"/>
</svg>
